<svg xmlns="http://www.w3.org/2000/svg" xml:space="preserve" width="827.264" height="192.717"><defs><clipPath id="a" clipPathUnits="userSpaceOnUse"><path d="M0 266.038h871.698V0H0Z"/></clipPath></defs><g clip-path="url(#a)" transform="matrix(1.33333 0 0 -1.33333 -165.327 259.982)"><path d="M0 0q0-1.543-.465-2.841a6.3 6.3 0 0 0-1.383-2.253q-.92-.956-2.291-1.495-1.372-.537-3.159-.538-1.813 0-3.184.538-1.372.539-2.289 1.495a6.2 6.2 0 0 0-1.384 2.253q-.466 1.298-.466 2.841v10.653h3.821V.147q0-.809.257-1.495.257-.684.722-1.187a3.3 3.3 0 0 1 1.116-.784c.43-.188.902-.282 1.407-.282q.759 0 1.396.282t1.102.784q.465.503.722 1.187.257.686.258 1.495v10.506H0Z" style="fill:#fff;fill-opacity:1;fill-rule:nonzero;stroke:none" transform="translate(378.463 134.846)"/><path d="M0 0a2.28 2.28 0 0 0 .647 1.604q.307.305.725.477.414.172.881.172.463 0 .882-.172.414-.173.721-.477.308-.308.478-.723A2.3 2.3 0 0 0 4.505 0q0-.467-.171-.881a2.179 2.179 0 0 0-1.199-1.201 2.3 2.3 0 0 0-.882-.171q-.467 0-.881.171-.418.17-.725.478A2.268 2.268 0 0 0 0 0" style="fill:#fff;fill-opacity:1;fill-rule:nonzero;stroke:none" transform="translate(381.209 130.266)"/><path d="M0 0q-.466.587-1.262.87a4.6 4.6 0 0 1-1.505.281 4 4 0 0 1-.858-.099 3.3 3.3 0 0 1-.833-.305 1.8 1.8 0 0 1-.636-.552 1.4 1.4 0 0 1-.246-.832q0-.785.588-1.199.588-.418 1.482-.711a49 49 0 0 1 1.922-.588 8 8 0 0 0 1.922-.833 4.6 4.6 0 0 0 1.483-1.444q.587-.906.587-2.425-.001-1.445-.539-2.522a5.1 5.1 0 0 0-1.458-1.788 6.2 6.2 0 0 0-2.13-1.053 9.3 9.3 0 0 0-2.559-.343q-1.691 0-3.134.514-1.445.516-2.694 1.666l2.718 2.987a3.96 3.96 0 0 1 1.481-1.212 4.2 4.2 0 0 1 1.85-.429q.463 0 .943.111.476.11.855.33.38.22.614.563.232.344.232.808 0 .784-.6 1.237t-1.506.772q-.907.318-1.958.636a8.8 8.8 0 0 0-1.961.857 4.7 4.7 0 0 0-1.505 1.421q-.6.882-.6 2.327 0 1.394.551 2.448.55 1.053 1.469 1.763a6.4 6.4 0 0 0 2.118 1.066 8.7 8.7 0 0 0 2.473.355q1.47 0 2.843-.417a6.56 6.56 0 0 0 2.472-1.395Z" style="fill:#fff;fill-opacity:1;fill-rule:nonzero;stroke:none" transform="translate(400.189 141.262)"/><path d="M0 0q0 .464.171.881.172.416.478.723.306.305.723.477t.881.172.883-.172q.414-.173.721-.477.307-.308.479-.723.169-.417.17-.881-.001-.467-.17-.881a2.17 2.17 0 0 0-1.2-1.201 2.3 2.3 0 0 0-.883-.171 2.3 2.3 0 0 0-.881.171A2.17 2.17 0 0 0 .171-.881Q.001-.467 0 0" style="fill:#fff;fill-opacity:1;fill-rule:nonzero;stroke:none" transform="translate(405.43 130.266)"/><path d="M0 0a3.76 3.76 0 0 1-1.384 1.054q-.819.366-1.898.367-1.077 0-1.995-.417A4.8 4.8 0 0 1-6.869-.159a5.4 5.4 0 0 1-1.054-1.775 6.4 6.4 0 0 1-.379-2.229q0-1.225.379-2.241a5.6 5.6 0 0 1 1.042-1.763A4.7 4.7 0 0 1-5.326-9.33a4.5 4.5 0 0 1 1.923-.417q1.174 0 2.081.49A4.1 4.1 0 0 1 .171-7.885l3.184-2.376a6.63 6.63 0 0 0-2.791-2.278 8.6 8.6 0 0 0-3.478-.734q-2.033 0-3.746.637a8.6 8.6 0 0 0-2.964 1.825q-1.248 1.186-1.948 2.876-.697 1.69-.697 3.772 0 2.08.697 3.772a8.3 8.3 0 0 0 1.948 2.876A8.6 8.6 0 0 0-6.66 4.31q1.713.637 3.746.637.736 0 1.53-.135a8.3 8.3 0 0 0 1.569-.429 6.9 6.9 0 0 0 1.481-.784A5.9 5.9 0 0 0 2.938 2.4Z" style="fill:#fff;fill-opacity:1;fill-rule:nonzero;stroke:none" transform="translate(436.065 140.993)"/><path d="M0 0h11.78v-3.526H3.82V-6.76h7.519v-3.525H3.82v-3.528h8.401v-3.526H0Z" style="fill:#fff;fill-opacity:1;fill-rule:nonzero;stroke:none" transform="translate(444.289 145.499)"/><path d="M0 0h5.193l7.369-12.048h.05V0h3.821v-17.339h-4.996L3.871-4.997H3.82v-12.342H0Z" style="fill:#fff;fill-opacity:1;fill-rule:nonzero;stroke:none" transform="translate(462.465 145.499)"/><path d="M0 0h-4.945v3.379H8.768V0H3.821v-13.96H0Z" style="fill:#fff;fill-opacity:1;fill-rule:nonzero;stroke:none" transform="translate(488.307 142.12)"/><path d="M0 0h11.78v-3.526H3.821V-6.76h7.518v-3.525H3.821v-3.528h8.4v-3.526H0Z" style="fill:#fff;fill-opacity:1;fill-rule:nonzero;stroke:none" transform="translate(501.625 145.499)"/><path d="M0 0h2.252q.515.001 1.089.038.577.035 1.042.22.465.184.773.576.303.392.304 1.101 0 .66-.269 1.053a1.8 1.8 0 0 1-.685.601 3.1 3.1 0 0 1-.956.282 8 8 0 0 1-1.053.073H0Zm-3.821 7.176H2.89q1.322 0 2.508-.258a6 6 0 0 0 2.084-.855A4.3 4.3 0 0 0 8.9 4.445q.528-1.016.528-2.533-.001-1.837-.955-3.123-.956-1.287-2.791-1.63l4.407-7.321h-4.58l-3.623 6.93H0v-6.93h-3.821z" style="fill:#fff;fill-opacity:1;fill-rule:nonzero;stroke:none" transform="translate(523.377 138.322)"/><path d="M0 0q-.466.587-1.261.87a4.6 4.6 0 0 1-1.506.281 4 4 0 0 1-.858-.099 3.3 3.3 0 0 1-.832-.305 1.8 1.8 0 0 1-.637-.552 1.4 1.4 0 0 1-.244-.832q0-.785.587-1.199.589-.418 1.481-.711a50 50 0 0 1 1.924-.588 8 8 0 0 0 1.922-.833 4.55 4.55 0 0 0 1.481-1.444q.588-.906.587-2.425.002-1.445-.538-2.522a5.1 5.1 0 0 0-1.457-1.788 6.2 6.2 0 0 0-2.13-1.053 9.4 9.4 0 0 0-2.559-.343q-1.689 0-3.135.514-1.445.516-2.694 1.666l2.718 2.987a3.96 3.96 0 0 1 1.483-1.212 4.142 4.142 0 0 1 2.791-.318q.478.11.858.33.379.22.611.563.232.344.233.808 0 .784-.6 1.237-.602.453-1.505.772-.908.318-1.961.636-1.052.319-1.958.857a4.7 4.7 0 0 0-1.506 1.421q-.601.882-.602 2.327 0 1.394.552 2.448a5.3 5.3 0 0 0 1.471 1.763 6.4 6.4 0 0 0 2.118 1.066 8.7 8.7 0 0 0 2.474.355q1.468 0 2.839-.417A6.5 6.5 0 0 0 2.62 2.865Z" style="fill:#fff;fill-opacity:1;fill-rule:nonzero;stroke:none" transform="translate(546.784 141.262)"/><path d="M0 0h11.633v-3.526H3.821v-3.527h7.223v-3.526H3.821v-6.76H0Z" style="fill:#fff;fill-opacity:1;fill-rule:nonzero;stroke:none" transform="translate(564.073 145.499)"/><path d="M0 0q0-1.225.379-2.241a5.1 5.1 0 0 1 1.09-1.763 4.9 4.9 0 0 1 1.703-1.163q.99-.418 2.216-.417 1.223 0 2.215.417a4.9 4.9 0 0 1 1.704 1.163 5.1 5.1 0 0 1 1.088 1.763q.381 1.016.381 2.241 0 1.2-.381 2.229a5.1 5.1 0 0 1-1.088 1.775 5 5 0 0 1-1.704 1.163q-.992.416-2.215.417-1.226 0-2.216-.417a5 5 0 0 1-1.703-1.163 5.1 5.1 0 0 1-1.09-1.775A6.4 6.4 0 0 1 0 0m-3.968 0q0 2.08.698 3.772a8.3 8.3 0 0 0 1.946 2.876 8.6 8.6 0 0 0 2.966 1.825q1.712.637 3.746.637 2.031 0 3.746-.637a8.6 8.6 0 0 0 2.964-1.825 8.3 8.3 0 0 0 1.947-2.876q.697-1.692.697-3.772 0-2.082-.697-3.772-.699-1.69-1.947-2.876a8.6 8.6 0 0 0-2.964-1.825Q7.419-9.11 5.388-9.11q-2.033 0-3.746.637a8.6 8.6 0 0 0-2.966 1.825Q-2.569-5.462-3.27-3.772-3.969-2.082-3.968 0" style="fill:#fff;fill-opacity:1;fill-rule:nonzero;stroke:none" transform="translate(583.304 136.83)"/><path d="M0 0h2.253q.514.001 1.088.038.577.035 1.042.22.466.184.771.576.307.392.307 1.101 0 .66-.27 1.053a1.8 1.8 0 0 1-.686.601 3.1 3.1 0 0 1-.955.282 8 8 0 0 1-1.053.073H0Zm-3.821 7.176h6.71q1.322 0 2.511-.258 1.186-.256 2.08-.855a4.3 4.3 0 0 0 1.422-1.618q.526-1.016.526-2.533 0-1.837-.955-3.123-.956-1.287-2.791-1.63l4.407-7.321h-4.58l-3.625 6.93H0v-6.93h-3.821z" style="fill:#fff;fill-opacity:1;fill-rule:nonzero;stroke:none" transform="translate(605.923 138.322)"/><path d="M0 0h1.983q1.322 0 2.462.27 1.138.27 1.971.893.831.625 1.31 1.642.477 1.016.477 2.485 0 1.273-.477 2.216A4.45 4.45 0 0 1 6.44 9.062a5.7 5.7 0 0 1-1.898.918 8.4 8.4 0 0 1-2.289.307H0Zm-3.821 13.813H1.91q2.081 0 3.954-.465 1.873-.466 3.27-1.506 1.396-1.041 2.216-2.706t.821-4.042q0-2.106-.796-3.71A8 8 0 0 0 9.231-1.31a9.4 9.4 0 0 0-3.109-1.652 12 12 0 0 0-3.698-.564h-6.245z" style="fill:#fff;fill-opacity:1;fill-rule:nonzero;stroke:none" transform="translate(633.448 131.686)"/><path d="M650.361 145.499h3.82V128.16h-3.82z" style="fill:#fff;fill-opacity:1;fill-rule:nonzero;stroke:none"/><path d="M0 0q-.466.587-1.262.87a4.6 4.6 0 0 1-1.505.281q-.418 0-.858-.099a3.3 3.3 0 0 1-.832-.305 1.8 1.8 0 0 1-.637-.552q-.245-.343-.244-.832-.001-.785.587-1.199.587-.418 1.481-.711a50 50 0 0 1 1.922-.588 8 8 0 0 0 1.924-.833 4.6 4.6 0 0 0 1.481-1.444q.587-.906.587-2.425 0-1.445-.538-2.522a5.1 5.1 0 0 0-1.457-1.788A6.2 6.2 0 0 0-1.483-13.2a9.3 9.3 0 0 0-2.559-.343q-1.688 0-3.134.514-1.445.516-2.694 1.666l2.719 2.987A3.96 3.96 0 0 1-5.67-9.588a4.148 4.148 0 0 1 2.792-.318q.478.11.857.33.38.22.612.563.233.344.234.808 0 .784-.602 1.237-.6.453-1.505.772a47 47 0 0 1-1.959.636 8.8 8.8 0 0 0-1.959.857 4.7 4.7 0 0 0-1.507 1.421q-.6.882-.6 2.327 0 1.394.552 2.448.55 1.053 1.469 1.763a6.4 6.4 0 0 0 2.119 1.066 8.7 8.7 0 0 0 2.473.355A9.7 9.7 0 0 0 .147 4.26 6.5 6.5 0 0 0 2.62 2.865Z" style="fill:#fff;fill-opacity:1;fill-rule:nonzero;stroke:none" transform="translate(669.685 141.262)"/><path d="M0 0h11.78v-3.526H3.821V-6.76h7.518v-3.525H3.821v-3.528h8.4v-3.526H0Z" style="fill:#fff;fill-opacity:1;fill-rule:nonzero;stroke:none" transform="translate(677.56 145.499)"/><path d="m0 0-2.106-5.388H2.13Zm-1.471 5.044h3.16l7.542-17.338h-4.31L3.428-8.622h-6.735l-1.445-3.672h-4.211z" style="fill:#fff;fill-opacity:1;fill-rule:nonzero;stroke:none" transform="translate(702.26 140.454)"/><path d="M0 0q-.466.587-1.262.87a4.6 4.6 0 0 1-1.505.281q-.418 0-.858-.099a3.3 3.3 0 0 1-.832-.305 1.8 1.8 0 0 1-.637-.552q-.245-.343-.244-.832 0-.785.587-1.199.587-.418 1.481-.711a50 50 0 0 1 1.922-.588 8 8 0 0 0 1.924-.833 4.6 4.6 0 0 0 1.481-1.444q.587-.906.587-2.425 0-1.445-.538-2.522a5.1 5.1 0 0 0-1.457-1.788A6.2 6.2 0 0 0-1.483-13.2a9.3 9.3 0 0 0-2.559-.343q-1.688 0-3.134.514-1.445.516-2.694 1.666l2.719 2.987A3.96 3.96 0 0 1-5.67-9.588a4.148 4.148 0 0 1 2.792-.318q.478.11.857.33.38.22.612.563.233.344.234.808 0 .784-.602 1.237-.6.453-1.504.772-.907.318-1.96.636a8.8 8.8 0 0 0-1.959.857 4.7 4.7 0 0 0-1.507 1.421q-.6.882-.6 2.327 0 1.394.552 2.448.55 1.053 1.469 1.763a6.4 6.4 0 0 0 2.119 1.066 8.7 8.7 0 0 0 2.473.355A9.7 9.7 0 0 0 .147 4.26 6.5 6.5 0 0 0 2.62 2.865Z" style="fill:#fff;fill-opacity:1;fill-rule:nonzero;stroke:none" transform="translate(723.833 141.262)"/><path d="M0 0h11.78v-3.526H3.821V-6.76h7.518v-3.525H3.821v-3.528h8.4v-3.526H0Z" style="fill:#fff;fill-opacity:1;fill-rule:nonzero;stroke:none" transform="translate(731.708 145.499)"/><path d="M0 0a3.76 3.76 0 0 1-1.384 1.054q-.821.366-1.898.367-1.078 0-1.995-.417A4.8 4.8 0 0 1-6.869-.159a5.4 5.4 0 0 1-1.054-1.775 6.4 6.4 0 0 1-.379-2.229q0-1.225.379-2.241.38-1.017 1.04-1.763A4.7 4.7 0 0 1-5.328-9.33a4.5 4.5 0 0 1 1.923-.417q1.177 0 2.081.49A4.1 4.1 0 0 1 .171-7.885l3.184-2.376a6.65 6.65 0 0 0-2.793-2.278 8.6 8.6 0 0 0-3.476-.734q-2.034 0-3.746.637a8.6 8.6 0 0 0-2.966 1.825q-1.245 1.186-1.946 2.876-.698 1.69-.698 3.772 0 2.08.698 3.772a8.3 8.3 0 0 0 1.946 2.877A8.6 8.6 0 0 0-6.66 4.31q1.713.637 3.746.637.734 0 1.53-.135a8.2 8.2 0 0 0 1.567-.429 6.8 6.8 0 0 0 1.483-.784A6 6 0 0 0 2.938 2.4Z" style="fill:#fff;fill-opacity:1;fill-rule:nonzero;stroke:none" transform="translate(375.182 112.83)"/><path d="M0 0q0-1.225.379-2.241a5.1 5.1 0 0 1 1.09-1.763 4.9 4.9 0 0 1 1.702-1.163q.992-.418 2.217-.417 1.224 0 2.215.417a5 5 0 0 1 1.704 1.163 5.2 5.2 0 0 1 1.089 1.763A6.4 6.4 0 0 1 10.776 0q0 1.2-.38 2.229a5.2 5.2 0 0 1-1.089 1.775 5 5 0 0 1-1.704 1.163q-.991.416-2.215.417-1.225 0-2.217-.417a5 5 0 0 1-1.702-1.163 5.1 5.1 0 0 1-1.09-1.775A6.4 6.4 0 0 1 0 0m-3.967 0q0 2.08.697 3.772a8.25 8.25 0 0 0 1.948 2.876A8.6 8.6 0 0 0 1.64 8.473q1.713.637 3.748.637 2.031 0 3.746-.637a8.6 8.6 0 0 0 2.964-1.825q1.249-1.187 1.947-2.876.697-1.692.697-3.772 0-2.082-.697-3.772-.698-1.69-1.947-2.876a8.6 8.6 0 0 0-2.964-1.825Q7.419-9.11 5.388-9.11q-2.034 0-3.748.637a8.6 8.6 0 0 0-2.962 1.825q-1.25 1.186-1.948 2.876-.697 1.69-.697 3.772" style="fill:#fff;fill-opacity:1;fill-rule:nonzero;stroke:none" transform="translate(384.569 108.667)"/><path d="M0 0h5.191l7.373-12.048h.048V0h3.82v-17.339h-4.995L3.869-4.997h-.048v-12.342H0Z" style="fill:#fff;fill-opacity:1;fill-rule:nonzero;stroke:none" transform="translate(403.464 117.337)"/><path d="M0 0h-4.947v3.379H8.767V0H3.82v-13.96H0Z" style="fill:#fff;fill-opacity:1;fill-rule:nonzero;stroke:none" transform="translate(428.18 113.958)"/><path d="M0 0h2.253q.515.001 1.09.038.575.035 1.04.22.466.184.772.576t.306 1.101q0 .66-.268 1.053-.272.391-.687.601a3.1 3.1 0 0 1-.955.282q-.539.073-1.054.073H0Zm-3.82 7.176h6.71q1.323 0 2.51-.258 1.187-.256 2.082-.855a4.3 4.3 0 0 0 1.42-1.618q.527-1.016.528-2.533 0-1.837-.957-3.123-.954-1.287-2.791-1.63l4.407-7.321H5.511l-3.625 6.93H0v-6.93h-3.82z" style="fill:#fff;fill-opacity:1;fill-rule:nonzero;stroke:none" transform="translate(444.118 110.16)"/><path d="M0 0q0-1.225.379-2.241a5.1 5.1 0 0 1 1.09-1.763 5 5 0 0 1 1.703-1.163q.991-.418 2.216-.417 1.223 0 2.217.417a4.95 4.95 0 0 1 1.702 1.163 5.1 5.1 0 0 1 1.089 1.763A6.4 6.4 0 0 1 10.776 0q0 1.2-.38 2.229a5.1 5.1 0 0 1-1.089 1.775 5 5 0 0 1-1.702 1.163q-.994.416-2.217.417-1.225 0-2.216-.417a5 5 0 0 1-1.703-1.163 5.1 5.1 0 0 1-1.09-1.775A6.4 6.4 0 0 1 0 0m-3.967 0q0 2.08.697 3.772a8.3 8.3 0 0 0 1.948 2.876 8.6 8.6 0 0 0 2.964 1.825q1.713.637 3.746.637t3.748-.637a8.6 8.6 0 0 0 2.962-1.825 8.25 8.25 0 0 0 1.947-2.876q.697-1.692.697-3.772 0-2.082-.697-3.772a8.2 8.2 0 0 0-1.947-2.876 8.6 8.6 0 0 0-2.962-1.825Q7.42-9.11 5.388-9.11t-3.746.637a8.6 8.6 0 0 0-2.964 1.825Q-2.57-5.462-3.27-3.772-3.966-2.082-3.967 0" style="fill:#fff;fill-opacity:1;fill-rule:nonzero;stroke:none" transform="translate(460.52 108.667)"/><path d="M0 0h3.821v-13.813h7.078v-3.526H0Z" style="fill:#fff;fill-opacity:1;fill-rule:nonzero;stroke:none" transform="translate(479.489 117.337)"/><path d="m0 0-2.106-5.388H2.13Zm-1.469 5.044h3.158l7.544-17.338H4.921L3.428-8.622h-6.733l-1.446-3.672h-4.212z" style="fill:#fff;fill-opacity:1;fill-rule:nonzero;stroke:none" transform="translate(511.326 112.292)"/><path d="M0 0h5.191l7.371-12.048h.048V0h3.822v-17.339h-4.997L3.869-4.997H3.82v-12.342H0Z" style="fill:#fff;fill-opacity:1;fill-rule:nonzero;stroke:none" transform="translate(523.224 117.337)"/><path d="M0 0h1.983q1.322 0 2.462.27t1.971.893a4.3 4.3 0 0 1 1.31 1.642q.478 1.016.479 2.485-.001 1.273-.479 2.216a4.4 4.4 0 0 1-1.284 1.556 5.7 5.7 0 0 1-1.9.918 8.4 8.4 0 0 1-2.289.307H0Zm-3.821 13.813h5.732q2.082 0 3.953-.465 1.877-.466 3.27-1.506 1.397-1.041 2.217-2.706t.82-4.042q0-2.106-.796-3.71A7.94 7.94 0 0 0 9.233-1.31a9.5 9.5 0 0 0-3.111-1.652 12 12 0 0 0-3.698-.564h-6.245z" style="fill:#fff;fill-opacity:1;fill-rule:nonzero;stroke:none" transform="translate(548.569 103.524)"/><path d="M0 0h2.545q.517 0 .993.097.477.1.857.332.378.232.614.637.23.403.232 1.016 0 .662-.308 1.065a2.05 2.05 0 0 1-.782.625 3.4 3.4 0 0 1-1.066.282 12 12 0 0 1-1.127.061H0Zm-3.821 7.347H2.62q1.346 0 2.546-.244 1.2-.246 2.094-.846a4.3 4.3 0 0 0 1.421-1.616q.525-1.016.526-2.559 0-1.52-.49-2.547-.489-1.029-1.348-1.641-.855-.612-2.031-.87a12 12 0 0 0-2.547-.256H0v-6.76h-3.821z" style="fill:#fff;fill-opacity:1;fill-rule:nonzero;stroke:none" transform="translate(578.813 109.99)"/><path d="M0 0h2.253q.514.001 1.088.038.577.035 1.042.22.466.184.771.576.307.392.307 1.101 0 .66-.27 1.053a1.8 1.8 0 0 1-.686.601 3.1 3.1 0 0 1-.955.282 8 8 0 0 1-1.053.073H0Zm-3.821 7.176h6.71q1.322 0 2.511-.258 1.186-.256 2.08-.855a4.3 4.3 0 0 0 1.422-1.618q.526-1.016.526-2.533 0-1.837-.955-3.123-.956-1.287-2.791-1.63l4.407-7.321h-4.58l-3.625 6.93H0v-6.93h-3.821z" style="fill:#fff;fill-opacity:1;fill-rule:nonzero;stroke:none" transform="translate(595.424 110.16)"/><path d="M0 0h11.78v-3.526H3.821V-6.76h7.518v-3.525H3.821v-3.528h8.4v-3.526H0Z" style="fill:#fff;fill-opacity:1;fill-rule:nonzero;stroke:none" transform="translate(609.203 117.337)"/><path d="M0 0h4.358l4.286-11.363h.049L13.053 0h4.089l-7.15-17.339H6.93Z" style="fill:#fff;fill-opacity:1;fill-rule:nonzero;stroke:none" transform="translate(623.417 117.337)"/><path d="M0 0h11.78v-3.526H3.821V-6.76h7.518v-3.525H3.821v-3.528h8.4v-3.526H0Z" style="fill:#fff;fill-opacity:1;fill-rule:nonzero;stroke:none" transform="translate(643.077 117.337)"/><path d="M0 0h5.191l7.373-12.048h.048V0h3.821v-17.339h-4.996L3.869-4.997h-.048v-12.342H0Z" style="fill:#fff;fill-opacity:1;fill-rule:nonzero;stroke:none" transform="translate(659.881 117.337)"/><path d="M0 0h-4.947v3.379H8.768V0H3.821v-13.96H0Z" style="fill:#fff;fill-opacity:1;fill-rule:nonzero;stroke:none" transform="translate(684.598 113.958)"/><path d="M697.328 117.337h3.82V99.998h-3.82z" style="fill:#fff;fill-opacity:1;fill-rule:nonzero;stroke:none"/><path d="M0 0q0-1.225.379-2.241a5.1 5.1 0 0 1 1.09-1.763A4.9 4.9 0 0 1 3.17-5.167q.993-.418 2.218-.417 1.224 0 2.215.417a5 5 0 0 1 1.704 1.163 5.1 5.1 0 0 1 1.088 1.763q.381 1.016.381 2.241 0 1.2-.381 2.229a5.1 5.1 0 0 1-1.088 1.775 5 5 0 0 1-1.704 1.163q-.991.416-2.215.417-1.225 0-2.218-.417a5 5 0 0 1-1.701-1.163 5.1 5.1 0 0 1-1.09-1.775A6.4 6.4 0 0 1 0 0m-3.968 0q.001 2.08.698 3.772a8.25 8.25 0 0 0 1.948 2.876A8.5 8.5 0 0 0 1.64 8.473q1.713.637 3.748.637 2.031 0 3.746-.637a8.6 8.6 0 0 0 2.964-1.825 8.3 8.3 0 0 0 1.947-2.876q.697-1.692.697-3.772 0-2.082-.697-3.772-.699-1.69-1.947-2.876a8.6 8.6 0 0 0-2.964-1.825Q7.419-9.11 5.388-9.11q-2.034 0-3.748.637a8.5 8.5 0 0 0-2.962 1.825q-1.25 1.186-1.948 2.876-.697 1.69-.698 3.772" style="fill:#fff;fill-opacity:1;fill-rule:nonzero;stroke:none" transform="translate(708.936 108.667)"/><path d="M0 0h5.191l7.373-12.048h.048V0h3.821v-17.339h-4.996L3.869-4.997h-.048v-12.342H0Z" style="fill:#fff;fill-opacity:1;fill-rule:nonzero;stroke:none" transform="translate(727.489 117.337)"/><path d="M0 0h196.968c10.926 0 19.913 8.304 20.993 18.945q.109 1.064.109 2.157v114.517H21.103c-7.285 0-13.707-3.691-17.499-9.304a21 21 0 0 1-1.946-3.584A21 21 0 0 1 0 114.517Z" style="fill:#0057b7;fill-opacity:1;fill-rule:nonzero;stroke:none" transform="translate(128.216 55.147)"/><path d="M0 0c-1.08-10.641-10.068-18.945-20.993-18.945h-150.473l114.868 46.41c4.225-1.56 8.609-2.267 12.577-2.267 11.9 0 18.195 6.268 19.629 7.896a.555.555 0 0 1-.004.742l-4.384 4.869L.109 50.376V2.158Q.109 1.064 0 0m-195.412-18.945 65.003 45.516h16.492c18.099 0 32.133 10.552 32.133 30.197 0 21.283-13.194 29.809-31.496 30.49l28.023 29.416h77.308l-49.722-31.213c-9.943-4.017-18.651-12.919-18.651-28.808 0-14.137 6.961-22.736 15.495-27.291L-180.39-18.945Zm-22.549 2.381 25.199 65.662c2.668-12.975 12.18-19.883 21.852-22.559l-40.953-45.484h-6.098zm1.658 120.35a21 21 0 0 0 1.946 3.584c3.792 5.614 10.214 9.304 17.498 9.304h26.451l-14.443-37.632c-5.127-4.995-8.654-12.277-8.654-22.389q.002-.076.003-.153l-24.459-63.734V95.572c0 2.913.59 5.689 1.658 8.214m98.455-16.478h-17.388a.56.56 0 0 1-.558-.557V27.128a.6.6 0 0 1 .044-.217l-65.489-45.856h-6.127l40.207 44.655a36 36 0 0 1 5.954-.512c11.9 0 18.194 6.268 19.629 7.896a.555.555 0 0 1-.004.742l-7.552 8.388a.557.557 0 0 1-.785.045c-1.323-1.193-5.859-4.781-12.656-4.895-8.561-.142-17.234 6.959-17.234 19.279s8.95 19.279 17.333 19.279c6.226 0 10.236-2.933 11.458-3.968a.55.55 0 0 1 .768.057l7.603 8.445a.55.55 0 0 1 .02.724c-1.245 1.493-6.59 6.917-18.58 6.917-5.945 0-12.734-1.54-18.551-5.12l12.928 33.687h76.954zm2.386-48.384h-6.392a.557.557 0 0 0-.557.557v34.916c0 .308.249.558.557.558h7.336c11.323 0 18.837-5.576 18.837-17.501 0-13.812-7.342-18.53-19.781-18.53m83.514 3.3a.56.56 0 0 1-.785.045c-1.323-1.193-5.859-4.781-12.656-4.895-8.561-.142-17.235 6.959-17.235 19.279s8.951 19.279 17.334 19.279c6.226 0 10.236-2.933 11.457-3.968a.553.553 0 0 1 .769.057l7.603 8.445a.55.55 0 0 1 .02.724c-1.245 1.493-6.591 6.917-18.58 6.917-1.114 0-2.26-.061-3.422-.172l45.781 28.739H.109V53.982L-31.16 41.348Zm-164.911 78.671c-13.963 0-25.323-11.36-25.323-25.323V-23.166h201.189c13.963 0 25.323 11.36 25.323 25.324v118.737z" style="fill:#fff;fill-opacity:1;fill-rule:nonzero;stroke:none" transform="translate(346.177 74.091)"/></g></svg>